<svg width="20" height="21" viewBox="0 0 20 21" fill="none" xmlns="http://www.w3.org/2000/svg">
<g clip-path="url(#clip0_719_6467)">
<path d="M9.99967 3.83333C10.9201 3.83333 11.6663 3.08714 11.6663 2.16667C11.6663 1.24619 10.9201 0.5 9.99967 0.5C9.0792 0.5 8.33301 1.24619 8.33301 2.16667C8.33301 3.08714 9.0792 3.83333 9.99967 3.83333Z" fill="black"/>
<path d="M9.99967 12.1668C10.9201 12.1668 11.6663 11.4206 11.6663 10.5002C11.6663 9.57969 10.9201 8.8335 9.99967 8.8335C9.0792 8.8335 8.33301 9.57969 8.33301 10.5002C8.33301 11.4206 9.0792 12.1668 9.99967 12.1668Z" fill="black"/>
<path d="M9.99967 20.4998C10.9201 20.4998 11.6663 19.7536 11.6663 18.8332C11.6663 17.9127 10.9201 17.1665 9.99967 17.1665C9.0792 17.1665 8.33301 17.9127 8.33301 18.8332C8.33301 19.7536 9.0792 20.4998 9.99967 20.4998Z" fill="black"/>
</g>
<defs>
<clipPath id="clip0_719_6467">
<rect width="20" height="20" fill="white" transform="translate(0 0.5)"/>
</clipPath>
</defs>
</svg>
