<svg width="26" height="30" viewBox="0 0 26 30" fill="none" xmlns="http://www.w3.org/2000/svg">
<path d="M22.1543 30C21.7381 29.9987 21.3263 29.9058 20.9426 29.7267C20.5589 29.5475 20.211 29.2857 19.9189 28.9563L13.0001 21.3138L6.08139 28.9613C5.63705 29.4622 5.06719 29.8027 4.44611 29.9385C3.82503 30.0743 3.18153 29.999 2.59951 29.7225C2.01172 29.4598 1.50888 29.0063 1.15665 28.4211C0.804431 27.836 0.619196 27.1464 0.625139 26.4425V6.25C0.625139 4.5924 1.21777 3.00269 2.27266 1.83058C3.32756 0.65848 4.7583 0 6.25014 0L19.7501 0C20.4888 0 21.2203 0.161661 21.9027 0.475753C22.5852 0.789845 23.2053 1.25022 23.7276 1.83058C24.2499 2.41095 24.6643 3.09994 24.947 3.85823C25.2296 4.61651 25.3751 5.42924 25.3751 6.25V26.4425C25.3814 27.1459 25.1969 27.835 24.8455 28.4201C24.4941 29.0052 23.9922 29.459 23.4053 29.7225C23.0091 29.9066 22.5837 30.001 22.1543 30ZM6.25014 2.5C5.35503 2.5 4.49659 2.89509 3.86365 3.59835C3.23072 4.30161 2.87514 5.25544 2.87514 6.25V26.4425C2.87473 26.6508 2.92989 26.8545 3.03365 27.028C3.13741 27.2015 3.28511 27.3369 3.4581 27.4172C3.63109 27.4974 3.82161 27.5189 4.00558 27.4789C4.18956 27.4389 4.35874 27.3393 4.49176 27.1925L12.2126 18.6663C12.4234 18.4334 12.7086 18.3028 13.0058 18.3028C13.303 18.3028 13.5881 18.4334 13.7989 18.6663L21.5108 27.19C21.6438 27.3368 21.813 27.4364 21.9969 27.4764C22.1809 27.5164 22.3714 27.4949 22.5444 27.4147C22.7174 27.3344 22.8651 27.199 22.9689 27.0255C23.0726 26.852 23.1278 26.6483 23.1274 26.44V6.25C23.1274 5.25544 22.7718 4.30161 22.1389 3.59835C21.5059 2.89509 20.6475 2.5 19.7524 2.5H6.25014Z" fill="#121212"/>
</svg>
