<svg width="31" height="32" viewBox="0 0 31 32" fill="none" xmlns="http://www.w3.org/2000/svg">
<path d="M26.3492 32C25.8559 31.9986 25.3678 31.8996 24.9131 31.7085C24.4584 31.5174 24.046 31.2381 23.6998 30.8867L15.4998 22.7347L7.29984 30.892C6.77321 31.4263 6.09783 31.7896 5.36173 31.9344C4.62563 32.0792 3.86297 31.999 3.17317 31.704C2.47653 31.4238 1.88057 30.94 1.46312 30.3159C1.04567 29.6917 0.826129 28.9562 0.833172 28.2053V6.66667C0.833172 4.89856 1.53555 3.20286 2.78579 1.95262C4.03604 0.702379 5.73173 0 7.49984 0L23.4998 0C24.3753 0 25.2422 0.172438 26.0511 0.50747C26.8599 0.842501 27.5948 1.33356 28.2139 1.95262C28.8329 2.57168 29.324 3.30661 29.659 4.11544C29.9941 4.92428 30.1665 5.79119 30.1665 6.66667V28.2053C30.174 28.9556 29.9552 29.6907 29.5388 30.3147C29.1223 30.9388 28.5275 31.423 27.8318 31.704C27.3623 31.9004 26.8582 32.001 26.3492 32ZM7.49984 2.66667C6.43897 2.66667 5.42156 3.08809 4.67141 3.83824C3.92127 4.58839 3.49984 5.6058 3.49984 6.66667V28.2053C3.49936 28.4275 3.56473 28.6449 3.68771 28.8299C3.81068 29.0149 3.98574 29.1594 4.19076 29.245C4.39579 29.3306 4.62158 29.3535 4.83963 29.3109C5.05767 29.2682 5.25819 29.1619 5.41584 29.0053L14.5665 19.9107C14.8163 19.6623 15.1543 19.5229 15.5065 19.5229C15.8588 19.5229 16.1967 19.6623 16.4465 19.9107L25.5865 29.0027C25.7442 29.1592 25.9447 29.2655 26.1627 29.3082C26.3808 29.3509 26.6066 29.3279 26.8116 29.2423C27.0166 29.1567 27.1917 29.0123 27.3146 28.8272C27.4376 28.6422 27.503 28.4248 27.5025 28.2027V6.66667C27.5025 5.6058 27.0811 4.58839 26.3309 3.83824C25.5808 3.08809 24.5634 2.66667 23.5025 2.66667H7.49984Z" fill="white"/>
</svg>
