<svg width="31" height="30" viewBox="0 0 31 30" fill="none" xmlns="http://www.w3.org/2000/svg">
<path d="M24.25 0H6.75C3.30375 0 0.5 2.80375 0.5 6.25V23.75C0.5 27.1963 3.30375 30 6.75 30H24.25C27.6963 30 30.5 27.1963 30.5 23.75V6.25C30.5 2.80375 27.6963 0 24.25 0ZM28 23.75C28 25.8175 26.3175 27.5 24.25 27.5H6.75C4.6825 27.5 3 25.8175 3 23.75V6.25C3 4.1825 4.6825 2.5 6.75 2.5H24.25C26.3175 2.5 28 4.1825 28 6.25V23.75ZM22.71 14.31C23.0962 14.6912 23.0962 15.3088 22.71 15.69L17.1875 21.1413C16.565 21.7563 15.5 21.32 15.5 20.4513V16.25H9.25C8.55875 16.25 8 15.69 8 15C8 14.31 8.55875 13.75 9.25 13.75H15.5V9.54875C15.5 8.68 16.565 8.24375 17.1875 8.85875L22.71 14.31Z" fill="#FF0000" fill-opacity="0.7"/>
</svg>
