<svg width="50" height="50" viewBox="0 0 50 50" fill="none" xmlns="http://www.w3.org/2000/svg">
<g clip-path="url(#clip0_1257_10767)">
<path d="M39.5846 17.55V14.5833C39.5846 10.7156 38.0482 7.00627 35.3133 4.27136C32.5784 1.53645 28.869 0 25.0013 0C21.1336 0 17.4242 1.53645 14.6893 4.27136C11.9544 7.00627 10.418 10.7156 10.418 14.5833V17.55C8.56247 18.3598 6.98316 19.6928 5.87318 21.3859C4.76319 23.079 4.17063 25.0588 4.16797 27.0833V39.5833C4.17128 42.345 5.26981 44.9926 7.22259 46.9454C9.17538 48.8982 11.823 49.9967 14.5846 50H35.418C38.1796 49.9967 40.8272 48.8982 42.78 46.9454C44.7328 44.9926 45.8313 42.345 45.8346 39.5833V27.0833C45.832 25.0588 45.2394 23.079 44.1294 21.3859C43.0194 19.6928 41.4401 18.3598 39.5846 17.55ZM14.5846 14.5833C14.5846 11.8207 15.6821 9.17114 17.6356 7.21764C19.5891 5.26413 22.2386 4.16667 25.0013 4.16667C27.764 4.16667 30.4135 5.26413 32.367 7.21764C34.3205 9.17114 35.418 11.8207 35.418 14.5833V16.6667H14.5846V14.5833ZM41.668 39.5833C41.668 41.2409 41.0095 42.8306 39.8374 44.0028C38.6653 45.1749 37.0756 45.8333 35.418 45.8333H14.5846C12.927 45.8333 11.3373 45.1749 10.1652 44.0028C8.99312 42.8306 8.33464 41.2409 8.33464 39.5833V27.0833C8.33464 25.4257 8.99312 23.836 10.1652 22.6639C11.3373 21.4918 12.927 20.8333 14.5846 20.8333H35.418C37.0756 20.8333 38.6653 21.4918 39.8374 22.6639C41.0095 23.836 41.668 25.4257 41.668 27.0833V39.5833Z" fill="black"/>
<path d="M25.0013 29.167C24.4488 29.167 23.9189 29.3865 23.5282 29.7772C23.1375 30.1679 22.918 30.6978 22.918 31.2503V35.417C22.918 35.9695 23.1375 36.4994 23.5282 36.8901C23.9189 37.2808 24.4488 37.5003 25.0013 37.5003C25.5538 37.5003 26.0837 37.2808 26.4744 36.8901C26.8651 36.4994 27.0846 35.9695 27.0846 35.417V31.2503C27.0846 30.6978 26.8651 30.1679 26.4744 29.7772C26.0837 29.3865 25.5538 29.167 25.0013 29.167Z" fill="black"/>
</g>
<defs>
<clipPath id="clip0_1257_10767">
<rect width="50" height="50" fill="white"/>
</clipPath>
</defs>
</svg>
