<svg width="50" height="47" viewBox="0 0 50 47" fill="none" xmlns="http://www.w3.org/2000/svg">
<path d="M39.5833 0.583008H10.4167C7.65501 0.586316 5.00741 1.68485 3.05462 3.63763C1.10184 5.59042 0.00330804 8.23802 0 10.9997L0 35.9997C0.00330804 38.7613 1.10184 41.4089 3.05462 43.3617C5.00741 45.3145 7.65501 46.413 10.4167 46.4163H39.5833C42.345 46.413 44.9926 45.3145 46.9454 43.3617C48.8982 41.4089 49.9967 38.7613 50 35.9997V10.9997C49.9967 8.23802 48.8982 5.59042 46.9454 3.63763C44.9926 1.68485 42.345 0.586316 39.5833 0.583008ZM10.4167 4.74967H39.5833C40.8308 4.75213 42.049 5.12783 43.0812 5.82843C44.1133 6.52904 44.9122 7.52248 45.375 8.68093L29.4208 24.6372C28.2467 25.8066 26.6571 26.4632 25 26.4632C23.3429 26.4632 21.7533 25.8066 20.5792 24.6372L4.625 8.68093C5.08781 7.52248 5.88669 6.52904 6.91885 5.82843C7.951 5.12783 9.1692 4.75213 10.4167 4.74967ZM39.5833 42.2497H10.4167C8.75906 42.2497 7.16935 41.5912 5.99725 40.4191C4.82515 39.247 4.16667 37.6573 4.16667 35.9997V14.1247L17.6333 27.583C19.5888 29.5335 22.238 30.6289 25 30.6289C27.762 30.6289 30.4112 29.5335 32.3667 27.583L45.8333 14.1247V35.9997C45.8333 37.6573 45.1749 39.247 44.0028 40.4191C42.8306 41.5912 41.2409 42.2497 39.5833 42.2497Z" fill="#121212"/>
</svg>
