<svg width="31" height="30" viewBox="0 0 31 30" fill="none" xmlns="http://www.w3.org/2000/svg">
<path d="M17.3763 13.125C17.3763 14.16 16.5363 15 15.5013 15C14.4663 15 13.6263 14.16 13.6263 13.125C13.6263 12.09 14.4663 11.25 15.5013 11.25C16.5363 11.25 17.3763 12.09 17.3763 13.125ZM21.7513 11.25C20.7163 11.25 19.8763 12.09 19.8763 13.125C19.8763 14.16 20.7163 15 21.7513 15C22.7863 15 23.6263 14.16 23.6263 13.125C23.6263 12.09 22.7863 11.25 21.7513 11.25ZM9.25125 11.25C8.21625 11.25 7.37625 12.09 7.37625 13.125C7.37625 14.16 8.21625 15 9.25125 15C10.2863 15 11.1263 14.16 11.1263 13.125C11.1263 12.09 10.2863 11.25 9.25125 11.25ZM30.5013 5V20C30.5013 22.7575 28.2588 25 25.5013 25H21.9363L17.1263 28.975C16.675 29.3775 16.0963 29.58 15.5113 29.58C14.9163 29.58 14.3175 29.37 13.84 28.9462L9.15375 25H5.5C2.7425 25 0.5 22.7575 0.5 20V5C0.50125 2.2425 2.74375 0 5.50125 0H25.5013C28.2588 0 30.5013 2.2425 30.5013 5ZM28.0013 5C28.0013 3.62125 26.88 2.5 25.5013 2.5H5.50125C4.1225 2.5 3.00125 3.62125 3.00125 5V20C3.00125 21.3787 4.1225 22.5 5.50125 22.5H9.61125C9.905 22.5 10.1913 22.6038 10.4175 22.7938L15.4775 27.0563L20.6913 22.7863C20.915 22.6012 21.1963 22.5 21.4875 22.5H25.5025C26.8813 22.5 28.0025 21.3787 28.0025 20L28.0013 5Z" fill="#121212"/>
</svg>
