<svg width="33" height="32" viewBox="0 0 33 32" fill="none" xmlns="http://www.w3.org/2000/svg">
<g clip-path="url(#clip0_160_9660)">
<path d="M16.5 16C18.0823 16 19.629 15.5308 20.9446 14.6518C22.2602 13.7727 23.2855 12.5233 23.891 11.0615C24.4965 9.59966 24.655 7.99113 24.3463 6.43928C24.0376 4.88743 23.2757 3.46197 22.1569 2.34315C21.038 1.22433 19.6126 0.462403 18.0607 0.153721C16.5089 -0.15496 14.9003 0.00346629 13.4385 0.608967C11.9767 1.21447 10.7273 2.23985 9.84824 3.55544C8.96919 4.87104 8.5 6.41775 8.5 8C8.50212 10.1211 9.34565 12.1547 10.8455 13.6545C12.3453 15.1544 14.3789 15.9979 16.5 16ZM16.5 2.66667C17.5548 2.66667 18.586 2.97947 19.463 3.5655C20.3401 4.15153 21.0237 4.98449 21.4274 5.95903C21.831 6.93357 21.9366 8.00592 21.7309 9.04049C21.5251 10.0751 21.0171 11.0254 20.2712 11.7712C19.5254 12.5171 18.575 13.0251 17.5405 13.2309C16.5059 13.4366 15.4336 13.331 14.459 12.9274C13.4845 12.5237 12.6515 11.8401 12.0655 10.963C11.4795 10.086 11.1667 9.05484 11.1667 8C11.1667 6.58552 11.7286 5.22896 12.7288 4.22877C13.729 3.22857 15.0855 2.66667 16.5 2.66667Z" fill="white"/>
<path d="M16.5 18.6665C13.3185 18.67 10.2683 19.9354 8.01862 22.1851C5.76894 24.4348 4.50353 27.485 4.5 30.6665C4.5 31.0201 4.64048 31.3593 4.89052 31.6093C5.14057 31.8594 5.47971 31.9998 5.83333 31.9998C6.18696 31.9998 6.52609 31.8594 6.77614 31.6093C7.02619 31.3593 7.16667 31.0201 7.16667 30.6665C7.16667 28.1911 8.15 25.8172 9.90034 24.0668C11.6507 22.3165 14.0246 21.3332 16.5 21.3332C18.9754 21.3332 21.3493 22.3165 23.0997 24.0668C24.85 25.8172 25.8333 28.1911 25.8333 30.6665C25.8333 31.0201 25.9738 31.3593 26.2239 31.6093C26.4739 31.8594 26.813 31.9998 27.1667 31.9998C27.5203 31.9998 27.8594 31.8594 28.1095 31.6093C28.3595 31.3593 28.5 31.0201 28.5 30.6665C28.4965 27.485 27.2311 24.4348 24.9814 22.1851C22.7317 19.9354 19.6815 18.67 16.5 18.6665Z" fill="white"/>
</g>
<defs>
<clipPath id="clip0_160_9660">
<rect width="32" height="32" fill="white" transform="translate(0.5)"/>
</clipPath>
</defs>
</svg>
