<svg width="33" height="32" viewBox="0 0 33 32" fill="none" xmlns="http://www.w3.org/2000/svg">
<path d="M18.4999 14C18.4999 15.104 17.6039 16 16.4999 16C15.3959 16 14.4999 15.104 14.4999 14C14.4999 12.896 15.3959 12 16.4999 12C17.6039 12 18.4999 12.896 18.4999 14ZM23.1665 12C22.0625 12 21.1665 12.896 21.1665 14C21.1665 15.104 22.0625 16 23.1665 16C24.2705 16 25.1665 15.104 25.1665 14C25.1665 12.896 24.2705 12 23.1665 12ZM9.8332 12C8.7292 12 7.8332 12.896 7.8332 14C7.8332 15.104 8.7292 16 9.8332 16C10.9372 16 11.8332 15.104 11.8332 14C11.8332 12.896 10.9372 12 9.8332 12ZM32.4999 5.33333V21.3333C32.4999 24.2747 30.1079 26.6667 27.1665 26.6667H23.3639L18.2332 30.9067C17.7519 31.336 17.1345 31.552 16.5105 31.552C15.8759 31.552 15.2372 31.328 14.7279 30.876L9.7292 26.6667H5.83187C2.89054 26.6667 0.498535 24.2747 0.498535 21.3333V5.33333C0.499868 2.392 2.89187 0 5.8332 0H27.1665C30.1079 0 32.4999 2.392 32.4999 5.33333ZM29.8332 5.33333C29.8332 3.86267 28.6372 2.66667 27.1665 2.66667H5.8332C4.36254 2.66667 3.16654 3.86267 3.16654 5.33333V21.3333C3.16654 22.804 4.36254 24 5.8332 24H10.2172C10.5305 24 10.8359 24.1107 11.0772 24.3133L16.4745 28.86L22.0359 24.3053C22.2745 24.108 22.5745 24 22.8852 24H27.1679C28.6385 24 29.8345 22.804 29.8345 21.3333L29.8332 5.33333Z" fill="white"/>
</svg>
